<?xml version="1.0" encoding="iso-8859-1"?>
<!-- Generator: Adobe Illustrator 19.0.0, SVG Export Plug-In . SVG Version: 6.00 Build 0)  -->
<svg version="1.1" id="Capa_1" xmlns="http://www.w3.org/2000/svg" xmlns:xlink="http://www.w3.org/1999/xlink" x="0px" y="0px"
	 viewBox="0 0 512 512" style="enable-background:new 0 0 512 512;" xml:space="preserve">
<path style="fill:#E3E3E3;" d="M376,173v-43V90H136v40v43H10c0,16.139,0,312.424,0,329h492c0-16.576,0-312.861,0-329H376z"/>
<g>
	<path style="fill:#FD6244;" d="M399,336c-24.452,0-275.428,0-286,0c0-14.669,0-26.878,0-43c10.585,0,261.643,0,286,0
		C399,309.142,399,320.916,399,336z"/>
	<path style="fill:#FD6244;" d="M116,50v40c29.319,0,231.034,0,260,0h20V50H116z"/>
</g>
<rect x="419" y="223" style="fill:#4DBBEB;" width="40" height="40"/>
<rect x="376" y="130" style="fill:#FD6244;" width="126" height="43"/>
<rect x="419" y="379" style="fill:#4DBBEB;" width="40" height="60"/>
<path style="fill:#FD6244;" d="M336,173v80H176v-80H336z"/>
<path style="fill:#4DBBEB;" d="M312.59,50c2.21,6.26,3.41,12.99,3.41,20s-1.2,13.74-3.41,20c-8.24,23.31-30.46,40-56.59,40
	s-48.35-16.69-56.59-40C197.2,83.74,196,77.01,196,70s1.2-13.74,3.41-20c8.24-23.31,30.46-40,56.59-40S304.35,26.69,312.59,50z"/>
<path style="fill:#57555C;" d="M196,379v123c5.273,0,114.737,0,120,0V379C310.727,379,201.263,379,196,379z"/>
<rect x="10" y="130" style="fill:#FD6244;" width="126" height="43"/>
<g>
	<rect x="53" y="379" style="fill:#4DBBEB;" width="40" height="60"/>
	<rect x="53" y="223" style="fill:#4DBBEB;" width="40" height="40"/>
</g>
<path d="M216,203c-5.52,0-10,4.48-10,10s4.48,10,10,10s10-4.48,10-10S221.52,203,216,203z"/>
<path d="M459,369h-40c-5.522,0-10,4.477-10,10v60c0,5.523,4.478,10,10,10h40c5.522,0,10-4.477,10-10v-60
	C469,373.477,464.522,369,459,369z M449,429h-20v-40h20V429z"/>
<path d="M419,273h40c5.522,0,10-4.477,10-10v-40c0-5.523-4.478-10-10-10h-40c-5.522,0-10,4.477-10,10v40
	C409,268.523,413.478,273,419,273z M429,233h20v20h-20V233z"/>
<path d="M93,369H53c-5.522,0-10,4.477-10,10v60c0,5.523,4.478,10,10,10h40c5.522,0,10-4.477,10-10v-60
	C103,373.477,98.522,369,93,369z M83,429H63v-40h20V429z"/>
<path d="M103,263v-40c0-5.523-4.478-10-10-10H53c-5.522,0-10,4.477-10,10v40c0,5.523,4.478,10,10,10h40
	C98.522,273,103,268.523,103,263z M83,253H63v-20h20V253z"/>
<path d="M502,120H386v-20h10c5.522,0,10-4.477,10-10V50c0-5.523-4.478-10-10-10h-76.747C307.77,15.812,283.192,0,256,0
	c-27.191,0-51.768,15.811-63.252,40H116c-5.522,0-10,4.477-10,10v40c0,5.523,4.478,10,10,10h10v20H10c-5.522,0-10,4.477-10,10
	c0,2.967,0,366.887,0,372c0,5.522,4.478,10,10,10c9.874,0,480.594,0,492,0c5.522,0,10-4.478,10-10c0-2.358,0-363.125,0-372
	C512,124.477,507.522,120,502,120z M123,326v-23c9.073,0,254.403,0,266,0v23H123z M20,183h106v100h-13c-5.522,0-10,4.477-10,10v13
	H20V183z M399,283h-13V183h106v123h-83v-13C409,287.477,404.522,283,399,283z M492,140v23H386v-23H492z M386,80
	c-6.637,0-54.033,0-60.723,0c0.472-3.297,0.723-6.634,0.723-10s-0.251-6.703-0.723-10H386V80z M256,20c27.199,0,50,21.99,50,50
	c0,28.012-22.803,50-50,50c-27.198,0-50-21.988-50-50S228.803,20,256,20z M126,60h60.723C186.251,63.297,186,66.634,186,70
	s0.251,6.703,0.723,10c-6.882,0-49.785,0-60.723,0C126,80,126,60,126,60z M192.747,100c11.483,24.188,36.061,40,63.253,40
	c27.191,0,51.768-15.811,63.252-40H366v183H146V100C152.197,100,187.846,100,192.747,100z M20,140h106v23H20V140z M20,326h83v10
	c0,5.523,4.478,10,10,10h13v146H20V326z M146,346h220v146h-40V379c0-5.523-4.478-10-10-10H196c-5.522,0-10,4.477-10,10v113h-40V346z
	 M306,389v103h-40V389H306z M206,389h40v103h-40V389z M386,492V346h13c5.522,0,10-4.477,10-10v-10h83v166H386z"/>
<path d="M296,203h-40c-5.522,0-10,4.477-10,10s4.478,10,10,10h40c5.522,0,10-4.477,10-10S301.522,203,296,203z"/>
<path d="M176,263h160c5.522,0,10-4.477,10-10v-80c0-5.523-4.478-10-10-10H176c-5.522,0-10,4.477-10,10v80
	C166,258.523,170.478,263,176,263z M186,183h140v60H186V183z"/>
<path d="M236,80h10v10c0,5.523,4.478,10,10,10s10-4.477,10-10V80h10c5.522,0,10-4.477,10-10s-4.478-10-10-10h-10V50
	c0-5.523-4.478-10-10-10s-10,4.477-10,10v10h-10c-5.522,0-10,4.477-10,10S230.478,80,236,80z"/>
<g>
</g>
<g>
</g>
<g>
</g>
<g>
</g>
<g>
</g>
<g>
</g>
<g>
</g>
<g>
</g>
<g>
</g>
<g>
</g>
<g>
</g>
<g>
</g>
<g>
</g>
<g>
</g>
<g>
</g>
</svg>
